<svg width="512" height="512" viewBox="0 0 512 512" fill="none" xmlns="http://www.w3.org/2000/svg">
  <!-- Background Premium Canvas -->
  <rect width="512" height="512" rx="120" fill="#020204"/>
  
  <!-- Outer Glow / Halo -->
  <circle cx="256" cy="256" r="220" fill="url(#paint0_radial_glow)" fill-opacity="0.15"/>
  
  <!-- The Shield (Brasão) -->
  <path d="M256 60 L420 110 V280 C420 380 340 450 256 480 C172 450 92 380 92 280 V110 L256 60 Z" fill="#0D0D12" stroke="url(#paint1_linear_gold)" stroke-width="12"/>
  
  <!-- Inner Shield Detail -->
  <path d="M256 80 L395 125 V280 C395 365 330 425 256 455 C182 425 117 365 117 280 V125 L256 80 Z" fill="url(#paint2_linear_dark)" stroke="#FFD700" stroke-width="2" stroke-opacity="0.3"/>

  <!-- RC Monogram (Elite Typography) -->
  <g filter="url(#filter0_d)">
    <path d="M185 220 H245 C275 220 295 235 295 265 C295 290 280 305 255 310 L300 360 H260 L220 310 H215 V360 H185 V220 Z M215 285 H245 C255 285 265 280 265 265 C265 250 255 245 245 245 H215 V285 Z" fill="#FFFFFF"/>
    <path d="M335 340 C315 340 300 325 300 300 V280 H330 V300 C330 310 335 315 345 315 C355 315 360 310 360 300 V240 C360 230 355 225 345 225 C335 225 330 230 330 240 V260 H300 V240 C300 215 315 200 335 200 C355 200 370 215 370 240 V300 C370 325 355 340 335 340 Z" fill="#FFD700"/>
  </g>

  <!-- Crown Ornament -->
  <path d="M220 160 L240 140 L256 155 L272 140 L292 160 L272 170 L240 170 L220 160 Z" fill="#FFD700">
    <animate attributeName="opacity" values="0.7;1;0.7" dur="3s" repeatCount="indefinite" />
  </path>

  <defs>
    <filter id="filter0_d" x="175" y="195" width="210" height="185" filterUnits="userSpaceOnUse" color-interpolation-filters="sRGB">
      <feFlood flood-opacity="0" result="BackgroundImageFix"/>
      <feColorMatrix in="SourceAlpha" type="matrix" values="0 0 0 0 0 0 0 0 0 0 0 0 0 0 0 0 0 0 127 0" result="hardAlpha"/>
      <feOffset dy="4"/>
      <feGaussianBlur stdDeviation="10"/>
      <feComposite in2="hardAlpha" operator="out"/>
      <feColorMatrix type="matrix" values="0 0 0 0 1 0 0 0 0 0.84 0 0 0 0 0 0 0 0 0.5 0"/>
      <feBlend mode="normal" in2="BackgroundImageFix" result="effect1_dropShadow"/>
      <feBlend mode="normal" in="SourceGraphic" in2="effect1_dropShadow" result="shape"/>
    </filter>
    
    <radialGradient id="paint0_radial_glow" cx="0" cy="0" r="1" gradientUnits="userSpaceOnUse" gradientTransform="translate(256 256) rotate(90) scale(220)">
      <stop stop-color="#FFD700"/>
      <stop offset="1" stop-color="#020204" stop-opacity="0"/>
    </radialGradient>
    
    <linearGradient id="paint1_linear_gold" x1="92" y1="60" x2="420" y2="480" gradientUnits="userSpaceOnUse">
      <stop stop-color="#FFD700"/>
      <stop offset="0.5" stop-color="#F59E0B"/>
      <stop offset="1" stop-color="#B45309"/>
    </linearGradient>
    
    <linearGradient id="paint2_linear_dark" x1="256" y1="80" x2="256" y2="455" gradientUnits="userSpaceOnUse">
      <stop stop-color="#1A1A24"/>
      <stop offset="1" stop-color="#0A0A0F"/>
    </linearGradient>
  </defs>
</svg>
